<?xml version="1.0" encoding="utf-8"?>
<!-- Generator: Adobe Illustrator 28.1.0, SVG Export Plug-In . SVG Version: 6.00 Build 0)  -->
<svg version="1.1" id="Layer_1" xmlns="http://www.w3.org/2000/svg" xmlns:xlink="http://www.w3.org/1999/xlink" x="0px" y="0px"
	 viewBox="0 0 2834.6 2834.6" style="enable-background:new 0 0 2834.6 2834.6;" xml:space="preserve">
<style type="text/css">
	.st0{fill:#FFFFFF;}
</style>
<path id="path" class="st0" d="M1700.8,496.1c28.3,0,53.9,17,65.2,45.4l76.5,238.1c14.2,28.3,28.3,68,70.9,70.9h425.2
	c70.9,0,141.7,70.9,141.7,141.7V2126c0,70.9-70.9,141.7-141.7,141.7H496.1c-70.9,0-141.7-70.9-141.7-141.7V992.1
	c0-70.9,70.9-141.7,141.7-141.7h425.2c34,0,59.5-39.7,70.9-70.9l76.5-238.1c11.3-28.3,36.9-45.4,65.2-45.4H1700.8 M884.4,1488.2
	c0,292,240.9,532.9,532.9,532.9s532.9-240.9,532.9-532.9s-240.9-532.9-532.9-532.9S884.4,1196.2,884.4,1488.2L884.4,1488.2
	 M1737.6,1488.2c0,178.6-141.7,320.3-320.3,320.3S1097,1666.8,1097,1488.2s141.7-320.3,320.3-320.3S1737.6,1309.6,1737.6,1488.2
	L1737.6,1488.2"/>
</svg>
