<?xml version="1.0" encoding="utf-8"?>
<!-- Generator: Adobe Illustrator 28.1.0, SVG Export Plug-In . SVG Version: 6.00 Build 0)  -->
<svg version="1.1" id="Layer_1" xmlns="http://www.w3.org/2000/svg" xmlns:xlink="http://www.w3.org/1999/xlink" x="0px" y="0px"
	 viewBox="0 0 2834.6 2834.6" style="enable-background:new 0 0 2834.6 2834.6;" xml:space="preserve">
<style type="text/css">
	.st0{fill:#FFFFFF;}
</style>
<path id="path" class="st0" d="M708.7,178.6L708.7,178.6l1131,2.8c28.3,0,53.9,11.3,73.7,28.3l422.4,411
	c19.8,19.8,31.2,48.2,31.2,76.5l5.7,1712.1c2.8,136.1-110.6,246.6-246.6,246.6H708.7c-136.1,0-246.6-110.6-246.6-246.6V425.2
	c0-130.4,104.9-240.9,235.3-246.6C700.2,178.6,703,178.6,708.7,178.6L708.7,178.6L708.7,178.6L708.7,178.6 M674.6,425.2v1984.3
	c0,22.7,11.3,34,34,34H2126c22.7,0,36.9-11.3,36.9-34l-5.7-1593.1l-314.6-2.8c-59.5,0-104.9-45.4-104.9-104.9l-2.8-314.6
	l-1026.1-2.8l0,0C686,391.2,674.6,402.5,674.6,425.2L674.6,425.2 M1947.4,603.8h62.4l-62.4-62.4V603.8"/>
</svg>
